<?xml version="1.0" encoding="utf-8"?>
<!-- Generator: Adobe Illustrator 19.0.0, SVG Export Plug-In . SVG Version: 6.00 Build 0)  -->
<svg version="1.1" id="Layer_1" xmlns="http://www.w3.org/2000/svg" xmlns:xlink="http://www.w3.org/1999/xlink" x="0px" y="0px"
	 viewBox="0 0 600 600" style="enable-background:new 0 0 600 600;" xml:space="preserve">
<style type="text/css">
	.st0{fill:#78797C;}
	.st1{fill:#1F2126;}
</style>
<rect id="XMLID_41_" x="193" y="19" class="st0" width="319" height="569"/>
<path id="XMLID_1_" class="st1" d="M524.3,0H75.9C37.3,0,6.1,31.3,6.1,69.8v448.4c0,38.5,31.3,69.8,69.8,69.8h243.9V361.4h-75.7
	v-90.2h75.7v-70.4c0-65.8,53.5-119.4,119.4-119.4h64.5v94.1h-64.5c-13.9,0-25.3,11.3-25.3,25.3v70.4h89.8l-14.1,90.2h-75.7V588
	h110.5c38.5,0,69.8-31.3,69.8-69.8V69.8C594.1,31.3,562.8,0,524.3,0z"/>
<g id="Layer_2">
</g>
</svg>
