<svg xmlns="http://www.w3.org/2000/svg" width="28" height="28" viewBox="0 0 28 28">
    <path fill="#FFF" fill-rule="evenodd" d="M27.985 15.44l-7.573-.009s-.384-.026-.676.168c-.293.195-7.096 7.08-7.096 7.08s-2.71 2.48 1.307 2.484l14.026.017c-.002 1.539-1.234 2.822-2.737 2.82L2.73 27.972c-1.503-.001-2.732-1.262-2.73-2.8l.015-12.617c4.025.018 0 0 4.044.017-.001 2.56 3.185 2.516 3.201-.003l2.472-.003a1.47 1.47 0 0 0 1.464-1.468l-.009-6.845A1.471 1.471 0 0 0 9.72 2.79l-9.69.017v-.084C.068 1.216 1.284-.002 2.764 0L25.27.028c1.503.001 2.732 1.262 2.73 2.8l-.014 11.453-.001 1.16z" opacity=".4"/>
</svg>
